<?xml version="1.0" encoding="UTF-8" standalone="no"?>
<svg
   version="1.1"
   width="256"
   height="256"
   viewBox="0 0 256 256"
   xml:space="preserve"
   id="svg3"
   sodipodi:docname="minecraft.svg"
   inkscape:version="1.4.3 (0d15f75042, 2025-12-25)"
   xmlns:inkscape="http://www.inkscape.org/namespaces/inkscape"
   xmlns:sodipodi="http://sodipodi.sourceforge.net/DTD/sodipodi-0.dtd"
   xmlns="http://www.w3.org/2000/svg"
   xmlns:svg="http://www.w3.org/2000/svg"><defs
   id="defs3" /><sodipodi:namedview
   id="namedview3"
   pagecolor="#505050"
   bordercolor="#eeeeee"
   borderopacity="1"
   inkscape:showpageshadow="0"
   inkscape:pageopacity="0"
   inkscape:pagecheckerboard="0"
   inkscape:deskcolor="#505050"
   inkscape:zoom="1.09375"
   inkscape:cx="131.65714"
   inkscape:cy="128"
   inkscape:window-width="1362"
   inkscape:window-height="739"
   inkscape:window-x="0"
   inkscape:window-y="0"
   inkscape:window-maximized="0"
   inkscape:current-layer="svg3" />

<path
   d="m 161.13647,38.589244 c -1.05971,0 -1.61352,0.412743 -1.56552,1.516769 0.048,1.473265 0.0481,2.948718 0.0924,4.421982 V 102.0574 l 0.008,0.008 -2.26361,0.36187 H 98.353879 98.310249 L 96.010715,102.0577 V 44.158427 c 0.04428,-1.196334 0.04376,-2.438427 0.136028,-3.590454 0.08857,-1.473265 -0.50984,-1.935099 -1.935104,-1.935099 -20.023849,0.048 -40.091083,0.048 -60.111244,0 -1.657885,-0.048 -1.888903,0.736362 -1.888903,2.117316 0.04431,8.839591 0,17.721662 0,26.557561 0.04431,11.738121 0.0462,23.473483 0.0462,35.211619 v 2.1635 c 0.048,2.94653 0.04775,2.94628 2.946277,2.94628 h 56.338384 c 1.473265,0 2.946149,-0.0481 4.419414,-0.0924 0,0 0.0026,-0.003 0.0026,-0.003 0,0 0.0026,-0.003 0.0026,-0.003 0,0 0,-0.003 0,-0.003 6.97e-4,-10e-4 0.0013,-0.007 0.0026,-0.008 0,0 0.0026,0 0.0026,0 l 0.130877,0.38239 c -0.04796,8.8359 -0.04809,17.67547 -0.09238,26.51137 l -5.299701,0.0616 -22.50258,0.0744 c -5.017963,0 -5.016905,-5.7e-4 -4.463046,5.0174 0,0.18462 0.04372,0.32096 0.136022,0.50558 v 15.0984 c 0.04431,25.03812 0.0462,50.03292 0.0462,75.07105 -0.04431,0.0922 -0.09239,0.22849 -0.09239,0.3208 -0.04431,0.8751 -0.138588,1.70162 -0.138588,2.5767 0,2.53298 9.7e-5,2.53309 2.533079,2.53309 h 24.668659 c 5.154584,0 5.15599,0.001 5.15599,-5.24582 0.04428,-0.36924 0.09172,-0.73432 0.136014,-1.10356 v -3.17726 c -0.228929,-0.50586 -0.228929,-1.10331 0,-1.60916 0.04428,-6.07768 0.09159,-12.15109 0.04362,-18.27308 0.04428,-2.6696 0.09435,-2.71531 2.671664,-2.71531 h 15.881153 l 44.78445,0.041 -0.008,-0.008 h 0.0436 l 0.008,0.008 c 0,8.72882 0.0436,17.41366 0.0436,26.09817 -0.0443,0.27693 -0.0924,0.54947 -0.0924,0.8264 l 0.78276,-0.13603 -0.73399,0.18479 c 0,1.05972 0.0924,2.11935 0,3.13106 -0.0922,1.47327 0.41315,2.0718 1.97872,2.02749 4.60442,-0.0922 9.20563,-0.0436 13.81004,-0.0436 h 14.72856 c 0.83079,0 1.8427,0.1843 1.8427,-1.15234 0,-1.33665 0.27746,-2.71758 -0.2284,-4.00622 0.0443,-0.0922 0.0443,-0.2285 0,-0.32081 0.0443,-1.10772 0.0924,-2.21181 0.0924,-3.31583 v -86.8536 c 0.36554,-0.8271 0.22841,-1.70162 0.22841,-2.57672 0,-2.99083 1.7e-4,-2.99246 -3.03867,-2.99246 l -29.27286,-0.0436 -0.0924,-26.51138 c 0.0443,-0.0924 0.088,-0.23295 0.13603,-0.36956 1.14833,0.048 2.34346,0.0924 3.49549,0.0924 h 55.19137 c 4.87765,0 4.87632,0.001 4.96863,-4.78386 v -0.36956 c 2e-5,-0.59817 0.0451,-1.24454 0.0488,-1.84271 -0.048,-19.83554 -0.0488,-39.720228 -0.0488,-59.559461 0,-2.484981 5.9e-4,-2.484318 -2.5767,-2.484318 h -56.98018 c -0.91941,0 -1.8421,0.04431 -2.76151,0 z M 32.534544,100.35585 c 0,0.69048 0.04439,1.33701 0.09239,2.02749 h -0.0051 c -0.04431,-0.67202 -0.08726,-1.30302 -0.08726,-1.97873 z m 127.298186,1.87094 0.14628,0.14885 v 0.0359 z"
   style="fill:#ffffff;stroke-width:1.7585"
   id="path4" /></svg>
