<?xml version="1.0" encoding="UTF-8" standalone="no"?>
<!-- Created with Inkscape (http://www.inkscape.org/) -->

<svg
   width="16"
   height="16"
   viewBox="0 0 4.2333333 4.2333335"
   version="1.1"
   id="svg8"
   inkscape:version="1.4.3 (0d15f75042, 2025-12-25)"
   sodipodi:docname="nwg-look.svg"
   xmlns:inkscape="http://www.inkscape.org/namespaces/inkscape"
   xmlns:sodipodi="http://sodipodi.sourceforge.net/DTD/sodipodi-0.dtd"
   xmlns="http://www.w3.org/2000/svg"
   xmlns:svg="http://www.w3.org/2000/svg"
   xmlns:rdf="http://www.w3.org/1999/02/22-rdf-syntax-ns#"
   xmlns:cc="http://creativecommons.org/ns#"
   xmlns:dc="http://purl.org/dc/elements/1.1/">
  <defs
     id="defs2" />
  <sodipodi:namedview
     id="base"
     pagecolor="#515151"
     bordercolor="#666666"
     borderopacity="1.0"
     inkscape:pageopacity="0.0"
     inkscape:pageshadow="2"
     inkscape:zoom="12.097353"
     inkscape:cx="8.0182829"
     inkscape:cy="6.6130168"
     inkscape:document-units="px"
     inkscape:current-layer="layer1"
     showgrid="false"
     units="px"
     inkscape:window-width="1362"
     inkscape:window-height="739"
     inkscape:window-x="0"
     inkscape:window-y="0"
     inkscape:window-maximized="0"
     inkscape:pagecheckerboard="0"
     width="16px"
     showguides="true"
     inkscape:guide-bbox="true"
     inkscape:snap-nodes="true"
     inkscape:snap-others="false"
     inkscape:showpageshadow="0"
     inkscape:deskcolor="#8a8a8a">
    <sodipodi:guide
       position="0.26458334,5.0301644"
       orientation="-1,0"
       id="guide910"
       inkscape:label=""
       inkscape:locked="false"
       inkscape:color="rgb(0,0,255)" />
    <sodipodi:guide
       position="3.6380209,6.1495221"
       orientation="-1,0"
       id="guide912"
       inkscape:label=""
       inkscape:locked="false"
       inkscape:color="rgb(0,0,255)" />
    <sodipodi:guide
       position="-2.4853535,3.9687501"
       orientation="0,1"
       id="guide914"
       inkscape:label=""
       inkscape:locked="false"
       inkscape:color="rgb(0,0,255)" />
    <sodipodi:guide
       position="-1.9351607,0.26458334"
       orientation="0,1"
       id="guide916"
       inkscape:label=""
       inkscape:locked="false"
       inkscape:color="rgb(0,0,255)" />
    <sodipodi:guide
       position="0.59531251,4.0519223"
       orientation="-1,0"
       id="guide1230"
       inkscape:label=""
       inkscape:locked="false"
       inkscape:color="rgb(0,0,255)" />
    <sodipodi:guide
       position="-2.6561029,1.1244792"
       orientation="0,1"
       id="guide1232"
       inkscape:label=""
       inkscape:locked="false"
       inkscape:color="rgb(0,0,255)" />
    <sodipodi:guide
       position="-3.6047111,0"
       orientation="0,1"
       id="guide1234"
       inkscape:label=""
       inkscape:locked="false"
       inkscape:color="rgb(0,0,255)" />
    <sodipodi:guide
       position="3.9687501,4.9080916"
       orientation="-1,0"
       id="guide1350"
       inkscape:label=""
       inkscape:locked="false"
       inkscape:color="rgb(0,0,255)" />
    <sodipodi:guide
       position="-2.2053069,3.6380209"
       orientation="0,1"
       id="guide1352"
       inkscape:label=""
       inkscape:locked="false"
       inkscape:color="rgb(0,0,255)" />
    <sodipodi:guide
       position="-2.7319473,0.79375001"
       orientation="0,1"
       id="guide1354"
       inkscape:label=""
       inkscape:locked="false"
       inkscape:color="rgb(0,0,255)" />
    <sodipodi:guide
       position="-0.64184304,3.3072917"
       orientation="0,1"
       id="guide1582"
       inkscape:label=""
       inkscape:locked="false"
       inkscape:color="rgb(0,0,255)" />
  </sodipodi:namedview>
  <metadata
     id="metadata5">
    <rdf:RDF>
      <cc:Work
         rdf:about="">
        <dc:format>image/svg+xml</dc:format>
        <dc:type
           rdf:resource="http://purl.org/dc/dcmitype/StillImage" />
      </cc:Work>
    </rdf:RDF>
  </metadata>
  <g
     inkscape:label="Layer 1"
     inkscape:groupmode="layer"
     id="layer1"
     transform="translate(0,-280.06665)"
     style="fill:#ffffff;fill-opacity:1">
    <path
       id="rect1378"
       style="display:inline;fill:#ffffff;stroke-width:0.105833;fill-opacity:1"
       d="m 0.58652751,280.59583 c -0.1792332,0.005 -0.32194419,0.15037 -0.32194419,0.33073 v 2.51354 c 0,0.18323 0.14750767,0.33073 0.33072917,0.33073 H 2.8938803 L 2.5895061,283.4401 H 0.92604167 c -0.18322103,0 -0.33072918,-0.1475 -0.33072918,-0.33072 v -1.85209 H 3.6380209 v 1.85209 c 0,0.0632 -0.017513,0.12195 -0.048059,0.17208 l 0.3198773,0.34726 c 0.037123,-0.0535 0.058911,-0.11831 0.058911,-0.18862 v -2.51354 c 0,-0.18322 -0.1475076,-0.33073 -0.3307292,-0.33073 H 0.59531249 c -0.002863,0 -0.00594,-7e-5 -0.008785,0 z m 2.88406189,0.16692 a 0.16536461,0.16536461 0 0 1 0.1653646,0.16536 0.16536461,0.16536461 0 0 1 -0.1653646,0.16537 0.16536461,0.16536461 0 0 1 -0.1653646,-0.16537 0.16536461,0.16536461 0 0 1 0.1653646,-0.16536 z" />
    <g
       id="g15013"
       style="display:inline;fill:#ffffff;fill-opacity:1"
       transform="matrix(-0.00231811,0.00212741,0.00239521,0.00260419,2.708182,282.16906)">
      <g
         id="g15011"
         style="fill:#ffffff;fill-opacity:1"
         transform="translate(-0.70408743,-36.858764)">
        <path
           d="M 111.29419,207.93976 61.225641,234.31365 61.11286,614.86383 c -0.0039,9.22604 7.460238,16.69662 16.678376,16.69267 l 66.742094,-0.0286 c 4.60977,-0.002 8.78213,-1.87275 11.80148,-4.89468 3.02076,-3.02335 4.88921,-7.19857 4.89048,-11.81159 l 0.11419,-380.54877 z"
           id="path15009"
           style="fill:#ffffff;fill-opacity:1"
           sodipodi:nodetypes="cccsssccc" />
      </g>
    </g>
    <g
       id="g15019"
       style="display:inline;fill:#ffffff;fill-opacity:1"
       transform="matrix(-0.00314731,0,0,0.00314461,3.5850419,281.95584)">
      <g
         id="g15017"
         style="fill:#ffffff;fill-opacity:1">
        <path
           d="m 508.684,231.248 -61.051,-81.81 32.78,-96.678 c 2.032,-6.01 0.489,-12.673 -4.011,-17.162 -4.5,-4.499 -11.173,-6.031 -17.162,-4.01 l -96.678,32.78 -81.81,-61.051 c -5.097,-3.804 -11.901,-4.381 -17.564,-1.5 -5.663,2.89 -9.194,8.738 -9.119,15.096 l 1.304,102.069 -83.354,58.953 c -5.184,3.674 -7.846,9.967 -6.847,16.238 0.988,6.282 5.467,11.445 11.531,13.336 l 97.494,30.292 30.292,97.494 c 1.891,6.065 7.053,10.542 13.336,11.531 0.869,0.141 1.74,0.207 2.609,0.207 5.369,0 10.466,-2.516 13.63,-6.985 l 58.953,-83.283 102.069,1.443 c 0.076,0 0.151,0 0.217,0 6.272,0 12.021,-3.661 14.879,-9.258 2.881,-5.662 2.306,-12.605 -1.498,-17.702 z"
           id="path15015"
           style="fill:#ffffff;fill-opacity:1" />
      </g>
    </g>
    <g
       id="g15021"
       style="fill:#ffffff;fill-opacity:1"
       transform="matrix(-0.015314,0,0,0.0153009,16.055116,283.37435)" />
    <g
       id="g15023"
       style="fill:#ffffff;fill-opacity:1"
       transform="matrix(-0.015314,0,0,0.0153009,16.055116,283.37435)" />
    <g
       id="g15025"
       style="fill:#ffffff;fill-opacity:1"
       transform="matrix(-0.015314,0,0,0.0153009,16.055116,283.37435)" />
    <g
       id="g15027"
       style="fill:#ffffff;fill-opacity:1"
       transform="matrix(-0.015314,0,0,0.0153009,16.055116,283.37435)" />
    <g
       id="g15029"
       style="display:inline;fill:#ffffff;fill-opacity:1"
       transform="matrix(-0.015314,0,0,0.0153009,16.055116,283.37435)" />
    <g
       id="g15031"
       style="fill:#ffffff;fill-opacity:1"
       transform="matrix(-0.015314,0,0,0.0153009,16.055116,283.37435)" />
    <g
       id="g15033"
       style="display:inline;fill:#ffffff;fill-opacity:1"
       transform="matrix(-0.015314,0,0,0.0153009,16.055116,283.37435)" />
    <g
       id="g15035"
       style="fill:#ffffff;fill-opacity:1"
       transform="matrix(-0.015314,0,0,0.0153009,16.055116,283.37435)" />
    <g
       id="g15037"
       style="fill:#ffffff;fill-opacity:1"
       transform="matrix(-0.015314,0,0,0.0153009,16.055116,283.37435)" />
    <g
       id="g15039"
       style="fill:#ffffff;fill-opacity:1"
       transform="matrix(-0.015314,0,0,0.0153009,16.055116,283.37435)" />
    <g
       id="g15041"
       style="fill:#ffffff;fill-opacity:1"
       transform="matrix(-0.015314,0,0,0.0153009,16.055116,283.37435)" />
    <g
       id="g15043"
       style="fill:#ffffff;fill-opacity:1"
       transform="matrix(-0.015314,0,0,0.0153009,16.055116,283.37435)" />
    <g
       id="g15045"
       style="fill:#ffffff;fill-opacity:1"
       transform="matrix(-0.015314,0,0,0.0153009,16.055116,283.37435)" />
    <g
       id="g15047"
       style="fill:#ffffff;fill-opacity:1"
       transform="matrix(-0.015314,0,0,0.0153009,16.055116,283.37435)" />
    <g
       id="g15049"
       style="fill:#ffffff;fill-opacity:1"
       transform="matrix(-0.015314,0,0,0.0153009,16.055116,283.37435)" />
    <g
       id="g15021-2"
       style="fill:#ffffff;fill-opacity:1"
       transform="matrix(-0.02271763,0,0,0.02271763,17.950449,281.48143)" />
    <g
       id="g15023-9"
       style="fill:#ffffff;fill-opacity:1"
       transform="matrix(-0.02271763,0,0,0.02271763,17.950449,281.48143)" />
    <g
       id="g15025-1"
       style="fill:#ffffff;fill-opacity:1"
       transform="matrix(-0.02271763,0,0,0.02271763,17.950449,281.48143)" />
    <g
       id="g15027-2"
       style="fill:#ffffff;fill-opacity:1"
       transform="matrix(-0.02271763,0,0,0.02271763,17.950449,281.48143)" />
    <g
       id="g15029-7"
       style="fill:#ffffff;fill-opacity:1"
       transform="matrix(-0.02271763,0,0,0.02271763,17.950449,281.48143)" />
    <g
       id="g15031-0"
       style="fill:#ffffff;fill-opacity:1"
       transform="matrix(-0.02271763,0,0,0.02271763,17.950449,281.48143)" />
    <g
       id="g15033-9"
       style="fill:#ffffff;fill-opacity:1"
       transform="matrix(-0.02271763,0,0,0.02271763,17.950449,281.48143)" />
    <g
       id="g15035-3"
       style="fill:#ffffff;fill-opacity:1"
       transform="matrix(-0.02271763,0,0,0.02271763,17.950449,281.48143)" />
    <g
       id="g15037-6"
       style="fill:#ffffff;fill-opacity:1"
       transform="matrix(-0.02271763,0,0,0.02271763,17.950449,281.48143)" />
    <g
       id="g15039-0"
       style="fill:#ffffff;fill-opacity:1"
       transform="matrix(-0.02271763,0,0,0.02271763,17.950449,281.48143)" />
    <g
       id="g15041-6"
       style="fill:#ffffff;fill-opacity:1"
       transform="matrix(-0.02271763,0,0,0.02271763,17.950449,281.48143)" />
    <g
       id="g15043-2"
       style="fill:#ffffff;fill-opacity:1"
       transform="matrix(-0.02271763,0,0,0.02271763,17.950449,281.48143)" />
    <g
       id="g15045-6"
       style="fill:#ffffff;fill-opacity:1"
       transform="matrix(-0.02271763,0,0,0.02271763,17.950449,281.48143)" />
    <g
       id="g15047-1"
       style="fill:#ffffff;fill-opacity:1"
       transform="matrix(-0.02271763,0,0,0.02271763,17.950449,281.48143)" />
    <g
       id="g15049-8"
       style="fill:#ffffff;fill-opacity:1"
       transform="matrix(-0.02271763,0,0,0.02271763,17.950449,281.48143)" />
  </g>
</svg>
